
<svg xmlns="http://www.w3.org/2000/svg" version="1.1" xmlns:xlink="http://www.w3.org/1999/xlink" preserveAspectRatio="none" x="0px" y="0px" width="126px" height="150px" viewBox="0 0 126 150">
<defs>
<g id="Symbol_1_0_Layer1_0_FILL">
<path fill="#000000" stroke="none" d="
M 38.15 -59.45
Q 34 -63.65 28.4 -66.2 22.05 -69.15 13.8 -70.65
L 6.9 -71.55 -1.8 -71.05
Q -7.9 -71.45 -13.45 -69.75 -18.55 -68.15 -25.7 -63.95 -31.15 -60.65 -35.85 -54.55 -38.3 -51.35 -39.45 -49.1 -41.2 -46.4 -42.9 -41.2 -46.35 -30.8 -46.6 -18.4 -46.6 -17.95 -50.8 -13.8 -55.05 -9.6 -55.05 -9.25
L -51.75 -9.6
Q -49 -10 -47.8 -10.5 -48.4 2.9 -54.65 11.55 -57.55 15.8 -59.85 17.3 -54.75 17.35 -51.15 15.55 -49.25 14.65 -48.4 13.75 -49.55 17.1 -55.05 21.4
L -59.75 24.9
Q -55.2 25.6 -50.6 24.35 -46.35 23.2 -43.15 20.85 -41.65 29.5 -39.2 35.95 -35.8 45.2 -31.05 48.65 -30.6 49.1 -30.7 47.4
L -30.9 45.1 -28.35 47.85
Q -25.45 50.7 -21.9 52.2
L -20.75 53.4
Q -17.1 52.35 -13.35 51.5 -10.45 50.85 -7.45 51 -4.7 51.25 -1.85 51.8 0.75 52.45 3.3 52.9 6.25 53.45 9 53.95 12.2 54.75 15.2 55.25 17.85 55.8 20.55 56.3 21.2 56.35 21.75 56.5
L 25.7 52.35
Q 29.25 50.8 32 47.4 33.9 44.55 33.95 44.8 34.15 45.5 33.8 47.35 33.35 49.5 33.35 50.4 36.7 48.1 39.15 44.6
L 40.9 41.4 42.15 45.5
Q 44.5 41.65 46.7 36.75 51.4 26.85 52.1 19.7 52.85 11.65 51.9 6.15 50.6 0.7 50.1 -3.75 52.55 -0.1 56.45 2.35 60 4.75 59.9 3.65
L 53.7 -12.25
Q 51.55 -18.7 50.85 -26.2 49.3 -36.85 48.4 -40.35 46.95 -45.8 43.55 -52 41.15 -56.3 38.15 -59.45 Z"/>
</g>

<g id="Symbol_1_0_Layer0_0_FILL">
<path fill="#D2D2D2" stroke="none" d="
M 37.65 -25.55
L 37.7 -25.55
Q 37.55 -29 37.4 -30.15 37.3 -30.7 37.2 -31.1 36.4 -34.1 34.55 -33.3 34.5 -33.3 34.45 -33.25 34.4 -33.25 34.35 -33.2
L 34.3 -33.2
Q 26.1 -28.9 18.4 -25.85 14.75 -24.45 11.2 -23.25 10 -22.85 8.8 -22.5 0.25 -19.85 -0.6 -20.35 -0.8 -20.5 -0.6 -20.75 0.9 -22.35 2.2 -23.75 3.45 -25.15 4.5 -26.35 6.1 -28.15 6.8 -29.05 7.5 -29.95 7.25 -29.95 7.15 -30 6.75 -29.75 -8.9 -20.5 -26.75 -16.8 -29.35 -16.25 -31.95 -15.85 -32.65 -7.3 -32.7 -4 -32.7 -1.1 -32.25 4 -31.95 7.45 -30.65 10.9 -30.45 11.4 -30.3 11.9 -29.6 13.9 -29.3 15 -29.15 15.5 -29.1 15.75 -28.45 19.55 -28.25 26.8 -28.05 34.1 -27.6 36.95 -27.2 43.45 -24.45 48.5 -24.4 48.6 -24.35 48.65 -23.7 49.85 -23.05 50.75 -22.45 51.6 -21.8 52.2 -19.45 54.45 -18.9 55.05 -18.4 55.6 -15.35 59.2 -9.7 65.85 -5.95 68.65 -1.95 71.6 1.65 71.6 4.9 71.6 10 67.75 10.75 67.15 16.4 62.2 17.9 60.85 20.5 58.05 23.75 54.6 25.75 52.45 25.8 52.45 25.8 52.4 25.85 52.35 25.9 52.35 26.6 51.6 27.5 49.5 29.4 44.95 30.45 36.95 31.05 30.6 31.45 27.05 31.6 25.75 31.8 24.55
L 33.25 17.85
Q 33.55 16.55 34 15.35 34.3 14.5 34.6 13.7 35.8 10.05 36.4 6.95
L 36.4 7.2
Q 36.45 6.9 36.5 6.6
L 36.7 3.9
Q 37.35 -1.45 37.6 -14.05
L 37.65 -15.65 37.6 -15.65 37.65 -25.55 Z"/>
</g>

<g id="polo_main_parts_Symbol_29_0_Layer0_0_FILL">
<path fill="#F5FF00" stroke="none" d="
M 116.5 159.25
Q 118.65 159.2 118.85 157.6
L 118.85 152.75
Q 118.65 150.8 116.6 150.75
L 110.05 150.75
Q 108.4421875 150.8234375 108.2 152.6
L 108.25 157.4
Q 108.45 159.2 110.5 159.25
L 116.5 159.25 Z"/>

<path fill="#497727" stroke="none" d="
M 132.9 131.65
L 132.9 133.85
Q 132.5810546875 137.9966796875 129.4 139.1 128.1537109375 148.019921875 124.7 149.8 121.3076171875 151.5857421875 118.85 152.75
L 118.85 157.6
Q 129.22890625 154.847265625 131.85 149.15 133.46796875 145.501171875 135.3 130.2
L 132.9 131.65
M 102.1 26.8
Q 104.2705078125 31.4025390625 82 30.75 59.75 31.4 61.85 26.8 62 26.55 62.15 26.35 35.25 35.75 27.9 52.95 24.35 61.35 24.7 80.4
L 24.7 99.4 30.1 95.3 30.1 71.5
Q 34.8 36.85 80.85 32.75 129.190625 36.8658203125 133.9 71.5
L 133.9 95.25 139.3 99.35 139.3 80.4
Q 139.649609375 61.334765625 136.1 52.95 128.72578125 35.7376953125 101.85 26.3 102.0134765625 26.56015625 102.1 26.8 Z"/>

<path fill="#15442E" stroke="none" d="
M 31.2 94.45
L 30.1 95.3 24.7 99.4 20.5 102.55 20.5 125.2 31.1 131.65 31.1 95.35
Q 31.15 94.9 31.2 94.45
M 132.8 94.45
Q 132.8638671875 94.8810546875 132.9 95.35
L 132.9 131.65 135.3 130.2 143.5 125.2 143.5 102.55 139.3 99.35 133.9 95.25 132.8 94.45
M 82 30.75
Q 104.2705078125 31.4025390625 102.1 26.8 102.0134765625 26.56015625 101.85 26.3 99.0970703125 20.33828125 82.05 20.35 65.00078125 20.3537109375 62.15 26.35 62 26.55 61.85 26.8 59.75 31.4 82 30.75 Z"/>

<path fill="#9CB93C" stroke="none" d="
M 36.35 89.75
Q 31.95 90.1 31.2 94.45 31.15 94.9 31.1 95.35
L 31.1 131.65 31.1 133.85
Q 31.4 138 34.55 139.1 35.35 139.35 36.35 139.45 41.2 139.05 41.6 133.85
L 41.6 95.35
Q 41.2 90.15 36.35 89.75
M 132.8 94.45
Q 132.0626953125 90.1138671875 127.65 89.75 122.8046875 90.1451171875 122.4 95.35
L 122.4 133.85
Q 122.8 139.05 127.65 139.45 128.632421875 139.3689453125 129.4 139.1 132.5810546875 137.9966796875 132.9 133.85
L 132.9 131.65 132.9 95.35
Q 132.8638671875 94.8810546875 132.8 94.45 Z"/>
</g>
</defs>

<g transform="matrix( 1, 0, 0, 1, 60.4,77.4) ">
<g transform="matrix( 1, 0, 0, 1, 0,0) ">
<use xlink:href="#Symbol_1_0_Layer1_0_FILL"/>
</g>

<g transform="matrix( 1, 0, 0, 1, 0,0) ">
<use xlink:href="#Symbol_1_0_Layer0_0_FILL"/>
</g>
</g>

<g transform="matrix( 0.8409423828125, 0, 0, 0.84130859375, -6.55,-16.8) ">
<g transform="matrix( 1, 0, 0, 1, 0,0) ">
<use xlink:href="#polo_main_parts_Symbol_29_0_Layer0_0_FILL"/>
</g>
</g>
</svg>
